<svg xmlns="http://www.w3.org/2000/svg" viewBox="0 0 160 40" fill="none">
  <rect width="40" height="40" rx="12" fill="#D4AF37"/>
  <path d="M13 11h8.5c6.9 0 11.5 3.8 11.5 9.1 0 5.8-4.6 9.9-11.5 9.9H13V11Zm8.1 14.2c4.2 0 6.8-1.9 6.8-5.9 0-3.6-2.6-5.4-6.8-5.4h-3.4v11.3h3.4Z" fill="#080A0F"/>
  <path d="M57 12h4.8v16H57V12Zm2.4-6c1.8 0 3.1 1.2 3.1 2.9 0 1.7-1.3 2.9-3.1 2.9-1.8 0-3.1-1.2-3.1-2.9 0-1.7 1.3-2.9 3.1-2.9ZM69 12h4.6v2.6c1.5-2 3.8-3.1 6.6-3.1 5.1 0 8.6 3.4 8.6 8.9V28H84v-6.8c0-3.4-1.9-5.2-4.8-5.2-3.2 0-5.4 2.1-5.4 5.8V28H69V12ZM95.4 12h4.8v16h-4.8V12Zm2.4-6c1.8 0 3.1 1.2 3.1 2.9 0 1.7-1.3 2.9-3.1 2.9-1.8 0-3.1-1.2-3.1-2.9 0-1.7 1.3-2.9 3.1-2.9ZM107.4 12h4.6v2.5c1.4-1.9 3.6-3 6.3-3 5.4 0 9.4 3.5 9.4 8.9 0 5.5-4 9.1-9.4 9.1-2.6 0-4.8-.9-6.2-2.7V34h-4.7V12Zm9.9 13.4c3.2 0 5.5-2.1 5.5-5.1 0-3.1-2.3-5.2-5.5-5.2-3.2 0-5.5 2.1-5.5 5.2 0 3 2.3 5.1 5.5 5.1Z" fill="#F5F1E8"/>
</svg>